<svg version="1.1" xmlns="http://www.w3.org/2000/svg" viewBox="0 0 873.4375 267.5" width="873.4375" height="267.5" filter="invert(93%) hue-rotate(180deg)">
  <!-- svg-source:excalidraw -->
  
  <defs>
    <style class="style-fonts">
      @font-face {
        font-family: "Virgil";
        src: url("https://excalidraw.com/Virgil.woff2");
      }
      @font-face {
        font-family: "Cascadia";
        src: url("https://excalidraw.com/Cascadia.woff2");
      }
    </style>
  </defs>
  <rect x="0" y="0" width="873.4375" height="267.5" fill="#ffffff"></rect><g stroke-linecap="round" transform="translate(324.6875 105) rotate(0 164.375 23.75)"><path d="M-0.8 -0.74 C103.38 -0.84, 205.96 -0.14, 329.49 0.24 M0.51 0.43 C113.02 0.24, 226.27 0.43, 328.2 0.57 M328.39 -1.21 C327.9 12, 327.29 25.46, 328.17 47.23 M328.67 -0.83 C327.81 15.04, 328.96 31.22, 329.54 46.99 M327.38 48.61 C227.79 48.08, 125.33 49.28, 0.42 47.86 M328.84 47.64 C221.04 47.68, 112.97 47.38, 0.57 47.88 M-1.54 48.88 C2.04 33.57, 1.67 15.06, 0.71 1.73 M0.2 47.18 C-0.82 34.42, 0.27 23.35, -0.47 -0.98" stroke="#000000" stroke-width="1" fill="none"></path></g><g transform="translate(465.5874996185303 119.15000000000009) rotate(0 23.475000381469727 9.600000000000023)"><text x="23.475000381469727" y="0" font-family="Virgil, Segoe UI Emoji" font-size="16px" fill="#000000" text-anchor="middle" style="white-space: pre;" direction="ltr" dominant-baseline="text-before-edge">Queue</text></g><g stroke-linecap="round" transform="translate(702.8125 43.75) rotate(0 75 14.375)"><path d="M0.42 -1.34 C38.85 3.31, 80.35 1.02, 148.74 -0.29 M-0.73 0.51 C51.66 -0.01, 102.5 -1.32, 150.55 -0.39 M149.76 0.14 C150.17 12.25, 151.31 21.98, 151.47 28.84 M150.14 -0.85 C150.04 6.44, 150.09 12.81, 149.47 28.45 M151.97 30.22 C107.93 29.08, 63.71 28.28, -0.64 29.74 M150.81 29.63 C112.22 29.03, 74.39 28.12, 0.13 28.88 M-1.64 28.3 C1.2 19.9, -1.99 9.73, -1.89 -0.56 M-0.51 28.63 C0.29 18.59, -0.04 8.92, -0.29 -0.39" stroke="#000000" stroke-width="1" fill="none"></path></g><g stroke-linecap="round" transform="translate(708.4375 130.625) rotate(0 77.5 14.600000000000023)"><path d="M-1.16 1.87 C35.16 0.42, 72.04 0.59, 155.83 -1.73 M-0.6 0.38 C39.23 -2, 80.7 -0.25, 154.71 -0.55 M154.71 0.1 C153.08 7.96, 154.46 15.03, 153.5 28.22 M155.61 -0.37 C155.49 10.7, 154.61 21.21, 154.15 29.82 M156.53 28.24 C98.69 28.47, 45.31 29.18, 0.35 29.78 M154.21 29.04 C104.95 28.24, 54.18 27.36, 0.49 28.43 M-1.9 29.65 C-1.36 16.18, -2.02 8.6, 0.34 -0.92 M-0.32 29.4 C-0.48 21.37, 0.42 12.91, 0.33 -0.12" stroke="#000000" stroke-width="1" fill="none"></path></g><g stroke-linecap="round" transform="translate(712.1875 174.375) rotate(0 75.625 14.600000000000023)"><path d="M1.87 -0.74 C45.7 1.12, 91.86 1.71, 149.52 -0.84 M0.38 -0.8 C40.42 1.56, 83.48 0.63, 150.7 -0.13 M151.35 -1.95 C150.86 8.5, 149.55 16.64, 150.27 30.54 M150.88 0.76 C151.29 5.89, 151.09 11.17, 151.87 29.8 M150.29 28.63 C111.34 32.15, 73.04 30.7, 0.58 29.71 M151.09 29.63 C99.19 28.13, 45.95 28.49, -0.77 30.07 M0.45 27.98 C-1.68 17.14, 2.02 9.16, -0.92 -0.33 M0.2 28.99 C0.54 18.43, 0.36 6.61, -0.12 -0.83" stroke="#000000" stroke-width="1" fill="none"></path></g><g stroke-linecap="round" transform="translate(704.6875 84.375) rotate(0 79.375 15.625)"><path d="M-0.74 -0.29 C40.58 -1.61, 81.49 -3.22, 157.91 -0.54 M-0.8 -0.9 C59.56 0.25, 117.55 -1.15, 158.62 0.11 M156.8 -0.43 C158.13 8.04, 157.2 18.58, 160.09 29.37 M159.51 -0.01 C158.82 9.72, 158.09 20.49, 159.35 30.83 M158.18 30.34 C111.05 30.28, 60.1 31.07, 0.51 32.17 M159.18 31.54 C124.02 30.39, 89.52 30.22, 0.87 31.74 M-1.22 29.52 C-1.58 24.36, 0.64 12.6, -0.33 1.85 M-0.21 31.69 C0.79 23.21, 0.43 14.54, -0.83 0.38" stroke="#000000" stroke-width="1" fill="none"></path></g><g stroke-linecap="round" transform="translate(10 49.6875) rotate(0 78.75 16.875)"><path d="M1.43 1.43 C52.59 1.89, 105.53 1.92, 156.82 0.09 M0.58 0.16 C52.87 1.85, 105.43 0.13, 157.64 -0.73 M158.04 1.59 C156.87 13.11, 158.41 24.05, 159.15 32.79 M157.52 0.24 C158.08 6.35, 157.59 14.68, 156.58 33.26 M158.08 34.8 C96.46 33.07, 34.1 34.23, 1.45 34.34 M157.16 32.8 C117.35 33.83, 77.38 31.86, 0.83 34.37 M1.41 33.77 C1.62 24.59, -0.3 14.93, -0.3 -1.65 M-0.29 33.56 C0.1 22.81, -0.82 12.2, -0.76 -0.3" stroke="#000000" stroke-width="1" fill="none"></path></g><g stroke-linecap="round" transform="translate(13.125 136.5625) rotate(0 80 13.75)"><path d="M1.43 -0.35 C51.26 -1.5, 101.41 -1.83, 160.09 0.64 M0.16 0.55 C49.41 -0.12, 96.32 -0.79, 159.27 0.35 M161.59 -0.47 C161.9 8, 161.54 15.51, 159.04 25.7 M160.24 0.33 C159.13 10.09, 160.38 19.57, 159.51 28.38 M161.05 27.6 C115.89 26.83, 72.81 29.41, 0.59 26.63 M159.05 27.71 C103.51 27.56, 44.06 27.79, 0.62 27.08 M0.02 29.26 C-0.51 17.94, -1.46 8.41, -1.65 0.43 M-0.19 27.55 C0.04 18.78, 0.29 11.02, -0.3 0.67" stroke="#000000" stroke-width="1" fill="none"></path></g><g stroke-linecap="round" transform="translate(14.375 186.5625) rotate(0 80 15.625)"><path d="M1.16 -0.35 C60.66 -0.4, 119.02 0.92, 160.08 -1.35 M0.79 0.81 C56.29 -0.75, 113.71 -0.54, 159.52 0.27 M161.82 1.07 C161.71 11.86, 159.29 18.62, 161.45 30.21 M159.27 -0.16 C160.6 8.53, 159.59 19.78, 159.76 30.74 M160.13 30.12 C108.68 32.78, 55.39 30.45, 1.19 30.08 M161 31.86 C116.49 32.43, 75.55 31.18, 0.42 31.51 M-0.44 31.09 C-1.39 19.38, -1.65 8.54, -0.29 -0.92 M-0.09 30.38 C0.22 22.01, -0.24 14.96, -0.97 0.78" stroke="#000000" stroke-width="1" fill="none"></path></g><g stroke-linecap="round" transform="translate(11.875 91.5625) rotate(0 79.375 16.875)"><path d="M1.19 -0.68 C44.93 0.92, 89.77 -1.07, 159.9 0.33 M-0.93 0.14 C55.68 -0.93, 112.35 -1.01, 159.02 0.79 M160.21 1.65 C158.1 7.53, 160.51 17.64, 158.8 34.24 M159.28 -0.92 C158.02 12.12, 158.27 21.96, 159.04 34.27 M160.03 35.2 C110.96 31.98, 63.16 31.68, -0.68 31.85 M157.78 34.58 C108.34 34.29, 57.1 34.97, 0.7 33.76 M-1.39 33.45 C-1.57 21.09, -0.21 6.65, -0.57 -0.39 M0.16 32.99 C-0.27 24.13, -0.94 13.96, -0.59 0.03" stroke="#000000" stroke-width="1" fill="none"></path></g><g stroke-linecap="round" transform="translate(229.6875 40.44999999999982) rotate(0 45 90)"><path d="M22.5 0 M22.5 0 C35.59 -1.39, 47.07 -0.69, 67.5 0 M22.5 0 C36.18 0.71, 51.37 0.6, 67.5 0 M67.5 0 C81.71 1.88, 90.39 8.78, 90 22.5 M67.5 0 C81.52 -0.57, 88.69 6.78, 90 22.5 M90 22.5 C90.59 57.63, 88.48 97.99, 90 157.5 M90 22.5 C89.74 66.6, 90.28 109.45, 90 157.5 M90 157.5 C91.69 172.46, 84.07 179.73, 67.5 180 M90 157.5 C89.55 173.47, 81.7 180.69, 67.5 180 M67.5 180 C52.31 180.72, 36.97 180.17, 22.5 180 M67.5 180 C56.61 179.4, 45.31 179.31, 22.5 180 M22.5 180 C7.69 180.53, -0.89 170.64, 0 157.5 M22.5 180 C8.92 178.5, -0.45 171.96, 0 157.5 M0 157.5 C-2.1 125.78, 1.53 95.75, 0 22.5 M0 157.5 C-0.41 120.99, -1.41 84.14, 0 22.5 M0 22.5 C0.76 6.33, 8.64 1.54, 22.5 0 M0 22.5 C0.04 6.42, 6.89 0.37, 22.5 0" stroke="#000000" stroke-width="1" fill="none"></path></g><g transform="translate(240.02083206176758 111.24999999999977) rotate(0 34.66666793823242 19.200000000000045)"><text x="34.66666793823242" y="0" font-family="Virgil, Segoe UI Emoji" font-size="16px" fill="#000000" text-anchor="middle" style="white-space: pre;" direction="ltr" dominant-baseline="text-before-edge">Forward </text><text x="34.66666793823242" y="19.2" font-family="Virgil, Segoe UI Emoji" font-size="16px" fill="#000000" text-anchor="middle" style="white-space: pre;" direction="ltr" dominant-baseline="text-before-edge">Logic</text></g><g stroke-linecap="round"><g transform="translate(701.8125 53.44682255092357) rotate(0 -25.462509981133053 26.61519421605726)"><path d="M-0.16 -0.06 C-8.56 8.56, -41.56 44.08, -50.18 52.82 M-1.71 -1.14 C-10.22 8.2, -42.79 45.27, -50.76 54.37" stroke="#000000" stroke-width="1" fill="none"></path></g><g transform="translate(701.8125 53.44682255092357) rotate(0 -25.462509981133053 26.61519421605726)"><path d="M-39.98 27.58 C-43.05 33.62, -47.27 44.66, -51.89 55.71 M-39.44 26.39 C-43.35 31.81, -45.02 38.98, -50.13 53.84" stroke="#000000" stroke-width="1" fill="none"></path></g><g transform="translate(701.8125 53.44682255092357) rotate(0 -25.462509981133053 26.61519421605726)"><path d="M-24.56 41.12 C-32.67 42.83, -41.8 49.55, -51.89 55.71 M-24.02 39.92 C-31.09 42.41, -36.05 46.7, -50.13 53.84" stroke="#000000" stroke-width="1" fill="none"></path></g></g><mask></mask><g stroke-linecap="round"><g transform="translate(702.3726851851852 104.88351742453665) rotate(0 -21.731853670206192 6.958214342894394)"><path d="M1.16 -0.97 C-6.32 1.13, -36.4 11.08, -44.29 13.6 M0.31 1.13 C-7.27 3.92, -36.69 12.49, -44.62 14.89" stroke="#000000" stroke-width="1" fill="none"></path></g><g transform="translate(702.3726851851852 104.88351742453665) rotate(0 -21.731853670206192 6.958214342894394)"><path d="M-27.13 2.67 C-32.81 4.66, -38.54 11.61, -44.28 14.63 M-25.78 0.91 C-31.03 4.59, -37.16 10.11, -44.23 14.02" stroke="#000000" stroke-width="1" fill="none"></path></g><g transform="translate(702.3726851851852 104.88351742453665) rotate(0 -21.731853670206192 6.958214342894394)"><path d="M-22.49 18.27 C-29.91 14.89, -37.26 16.42, -44.28 14.63 M-21.14 16.51 C-28.02 15.09, -35.66 15.53, -44.23 14.02" stroke="#000000" stroke-width="1" fill="none"></path></g></g><mask></mask><g stroke-linecap="round"><g transform="translate(704.0393518518517 142.76802169217603) rotate(0 -24.067801775214775 -5.5367720275086185)"><path d="M-0.64 0.49 C-8.7 -1.53, -40.49 -9.41, -48.56 -11.56 M1.22 -0.3 C-6.96 -2.16, -40.83 -8.16, -49.35 -10.03" stroke="#000000" stroke-width="1" fill="none"></path></g><g transform="translate(704.0393518518517 142.76802169217603) rotate(0 -24.067801775214775 -5.5367720275086185)"><path d="M-23.75 -13.44 C-31.57 -13.32, -39.98 -13.61, -48.33 -10.42 M-25.1 -14.68 C-31.35 -12.17, -39.88 -12.6, -48.72 -11" stroke="#000000" stroke-width="1" fill="none"></path></g><g transform="translate(704.0393518518517 142.76802169217603) rotate(0 -24.067801775214775 -5.5367720275086185)"><path d="M-27.05 3.41 C-34.01 -1.22, -41.49 -6.28, -48.33 -10.42 M-28.4 2.16 C-33.78 -0.38, -41.31 -5.88, -48.72 -11" stroke="#000000" stroke-width="1" fill="none"></path></g></g><mask></mask><g stroke-linecap="round"><g transform="translate(710.0875000000001 194.5924503019553) rotate(0 -27.795895667001787 -26.443064571486957)"><path d="M-0.15 0.25 C-9.38 -8.44, -46.55 -42.65, -55.44 -51.56 M-1.68 -0.66 C-10.54 -9.72, -44.52 -44.54, -53.2 -53.14" stroke="#000000" stroke-width="1" fill="none"></path></g><g transform="translate(710.0875000000001 194.5924503019553) rotate(0 -27.795895667001787 -26.443064571486957)"><path d="M-25.65 -41.82 C-32.43 -42.47, -43.23 -47.92, -54.64 -51.55 M-26.27 -39.7 C-35.3 -44.65, -44.3 -49.38, -53.34 -52.83" stroke="#000000" stroke-width="1" fill="none"></path></g><g transform="translate(710.0875000000001 194.5924503019553) rotate(0 -27.795895667001787 -26.443064571486957)"><path d="M-40.23 -27.38 C-42.77 -32.28, -49.26 -41.99, -54.64 -51.55 M-40.85 -25.26 C-45.31 -34.93, -49.6 -44.32, -53.34 -52.83" stroke="#000000" stroke-width="1" fill="none"></path></g></g><mask></mask><g transform="translate(742.1875 10) rotate(0 30.016666412353516 9.600000000000023)"><text x="0" y="0" font-family="Virgil, Segoe UI Emoji" font-size="16px" fill="#000000" text-anchor="start" style="white-space: pre;" direction="ltr" dominant-baseline="text-before-edge">Sources</text></g><g stroke-linecap="round"><g transform="translate(225.9375 129.41631630408415) rotate(0 -25.988818369191222 -34.16282082482064)"><path d="M-0.85 -0.88 C-9.6 -12.61, -43.92 -58.12, -52.56 -69.6 M0.91 1.28 C-7.9 -10.41, -43.91 -56.88, -52.89 -68.6" stroke="#000000" stroke-width="1" fill="none"></path></g><g transform="translate(225.9375 129.41631630408415) rotate(0 -25.988818369191222 -34.16282082482064)"><path d="M-29.01 -50.56 C-36.92 -55.81, -44.72 -61.85, -52.97 -68.51 M-27.58 -51.66 C-34.35 -56.97, -41.37 -62.24, -52.61 -68.54" stroke="#000000" stroke-width="1" fill="none"></path></g><g transform="translate(225.9375 129.41631630408415) rotate(0 -25.988818369191222 -34.16282082482064)"><path d="M-45.27 -38.03 C-48.41 -46.9, -51.36 -56.68, -52.97 -68.51 M-43.84 -39.13 C-46.1 -47.99, -48.63 -56.72, -52.61 -68.54" stroke="#000000" stroke-width="1" fill="none"></path></g></g><mask></mask><g stroke-linecap="round"><g transform="translate(228.6875 129.6852717222041) rotate(0 -27.925633322000294 -10.2516503537164)"><path d="M-1.04 0.07 C-10.31 -3.4, -46.61 -17.35, -55.86 -20.58 M0.62 -0.94 C-8.74 -4.26, -46.81 -15.87, -56.47 -19.23" stroke="#000000" stroke-width="1" fill="none"></path></g><g transform="translate(228.6875 129.6852717222041) rotate(0 -27.925633322000294 -10.2516503537164)"><path d="M-26.37 -19.22 C-35.53 -20.31, -41.76 -21.68, -56.07 -19.37 M-25.7 -19.88 C-38.3 -20.37, -49.29 -20.04, -56.59 -18.67" stroke="#000000" stroke-width="1" fill="none"></path></g><g transform="translate(228.6875 129.6852717222041) rotate(0 -27.925633322000294 -10.2516503537164)"><path d="M-32.7 0.3 C-40.12 -6.23, -44.57 -13.09, -56.07 -19.37 M-32.03 -0.36 C-42.15 -8.47, -50.66 -15.76, -56.59 -18.67" stroke="#000000" stroke-width="1" fill="none"></path></g></g><mask></mask><g stroke-linecap="round"><g transform="translate(229.6875 132.5) rotate(0 -30.523521374538518 10.984873369336128)"><path d="M0.83 0.97 C-9.46 4.26, -51.66 17.11, -61.88 20.43 M-0.2 0.44 C-10.07 3.8, -49.39 17.93, -59.49 21.53" stroke="#000000" stroke-width="1" fill="none"></path></g><g transform="translate(229.6875 132.5) rotate(0 -30.523521374538518 10.984873369336128)"><path d="M-34.79 1.33 C-44.32 9.35, -50.17 13.61, -59.29 20.17 M-36.59 2.25 C-43.44 8.11, -50.14 14.39, -59.27 22.15" stroke="#000000" stroke-width="1" fill="none"></path></g><g transform="translate(229.6875 132.5) rotate(0 -30.523521374538518 10.984873369336128)"><path d="M-27.87 20.66 C-39.5 23.15, -47.35 21.85, -59.29 20.17 M-29.67 21.57 C-38.58 21.54, -47.41 21.89, -59.27 22.15" stroke="#000000" stroke-width="1" fill="none"></path></g></g><mask></mask><g stroke-linecap="round"><g transform="translate(225.9375 133.75) rotate(0 -26.127633588714616 33.05720118729403)"><path d="M0.07 0.27 C-8.49 11.02, -42.92 54.29, -51.76 65.14 M-1.35 -0.63 C-9.97 10.28, -43.54 56.11, -52.33 66.75" stroke="#000000" stroke-width="1" fill="none"></path></g><g transform="translate(225.9375 133.75) rotate(0 -26.127633588714616 33.05720118729403)"><path d="M-42.78 39.39 C-45.27 44.94, -47.35 53.25, -51.39 67.46 M-42.93 38.95 C-46.41 44.77, -47.64 52.28, -52.97 66.06" stroke="#000000" stroke-width="1" fill="none"></path></g><g transform="translate(225.9375 133.75) rotate(0 -26.127633588714616 33.05720118729403)"><path d="M-26.53 51.92 C-33.42 54.14, -39.83 59.11, -51.39 67.46 M-26.68 51.48 C-34.14 54.14, -39.42 58.52, -52.97 66.06" stroke="#000000" stroke-width="1" fill="none"></path></g></g><mask></mask><g stroke-linecap="round" transform="translate(215.9375 13.75) rotate(0 227.5 121.875)"><path d="M32 0 M32 0 C181.41 0.66, 330.46 0.34, 423 0 M423 0 C444.37 0.82, 455.15 12.49, 455 32 M455 32 C453.52 96.67, 454.82 161.05, 455 211.75 M455 211.75 C456.06 233.03, 444.82 245.22, 423 243.75 M423 243.75 C285.49 244.66, 147.1 244.25, 32 243.75 M32 243.75 C11.32 243.72, 1.17 232.54, 0 211.75 M0 211.75 C-0.77 172.77, 1.45 136.96, 0 32 M0 32 C-0.08 10.66, 11.55 -1.32, 32 0" stroke="#000000" stroke-width="1.5" fill="none" stroke-dasharray="1.5 7"></path></g></svg>