<svg version="1.1" xmlns="http://www.w3.org/2000/svg" viewBox="0 0 931.25 408.9013154312506" width="931.25" height="408.9013154312506" filter="invert(93%) hue-rotate(180deg)">
  <!-- svg-source:excalidraw -->
  
  <defs>
    <style class="style-fonts">
      @font-face {
        font-family: "Virgil";
        src: url("https://excalidraw.com/Virgil.woff2");
      }
      @font-face {
        font-family: "Cascadia";
        src: url("https://excalidraw.com/Cascadia.woff2");
      }
    </style>
  </defs>
  <rect x="0" y="0" width="931.25" height="408.9013154312506" fill="#ffffff"></rect><g stroke-linecap="round" transform="translate(506.25 163.75) rotate(0 102.5 23.5)"><path d="M0.52 0.87 C52.25 0.31, 104.79 -0.88, 204.2 -0.89 M0.33 -0.81 C44.32 -0.31, 89.83 0.09, 204.25 0.14 M206.29 0.92 C205.52 14.5, 204.77 27.2, 204.63 45.45 M205.58 -0.08 C205.33 12.31, 204.85 24.57, 205.68 46.4 M204.1 48.04 C151.7 47.29, 94.69 49.32, 1.47 46.85 M204.68 46.58 C141.81 48.15, 76.65 46.8, 0.25 46.39 M1.29 48.89 C1.03 31.94, 0.15 18.45, 1.41 0.65 M-0.7 47.7 C-0.55 31.82, -0.81 16.94, -0.05 0.71" stroke="#000000" stroke-width="1" fill="none"></path></g><g transform="translate(585.2749996185303 177.6500000000001) rotate(0 23.475000381469727 9.599999999999909)"><text x="23.475000381469727" y="0" font-family="Virgil, Segoe UI Emoji" font-size="16px" fill="#000000" text-anchor="middle" style="white-space: pre;" direction="ltr" dominant-baseline="text-before-edge">Queue</text></g><g stroke-linecap="round" transform="translate(760.625 102.5) rotate(0 75 14.375)"><path d="M-0.42 -0.57 C47.59 -0.56, 97.68 -1.27, 149.65 0.12 M-0.22 -0.24 C50.71 0.35, 101.13 1, 150.94 -0.17 M151.24 -0.68 C150.82 10.1, 148.58 20.19, 149.82 26.84 M149.99 -0.11 C149.91 10.96, 149.37 20.21, 150.03 29.33 M149.14 26.76 C113.98 31.22, 74.94 29.81, 0.59 29.12 M150.92 28.31 C109.72 30.36, 69.96 30.3, 0.38 28.3 M0.06 29.08 C1.42 19.68, 0.37 8, -0.47 1.56 M-0.58 27.83 C-1.06 22.1, 0.51 15.62, 0.64 -0.24" stroke="#000000" stroke-width="1" fill="none"></path></g><g stroke-linecap="round" transform="translate(766.25 189.375) rotate(0 77.5 14.599999999999909)"><path d="M-1.75 -0.9 C42.04 -1.17, 85.72 0.56, 155.73 -1.83 M0.23 -0.84 C34.45 0.19, 69.53 0.2, 155.64 0.46 M155.69 -0.37 C153.63 8.12, 155.01 15.84, 156.15 29.04 M154.93 0.68 C154.39 9.48, 155.02 20.24, 154.5 29.78 M156.42 30.85 C99.87 27.9, 45.67 28.02, -0.71 28.26 M154.4 29.48 C94.08 28.73, 34.9 28.07, 0.65 30.15 M1.69 30.61 C0.64 18.89, -0.48 9.71, -1.41 1.4 M-0.86 29.15 C0.87 22.45, 0.81 15.31, -0.81 -0.06" stroke="#000000" stroke-width="1" fill="none"></path></g><g stroke-linecap="round" transform="translate(770 233.125) rotate(0 75.625 14.599999999999909)"><path d="M-1 -1.61 C40.73 0.8, 82.88 -1.15, 149.67 -0.45 M0.16 -0.18 C42.67 1.09, 84.1 1.72, 151.29 0.62 M149.7 -0.76 C151.17 5.86, 152.5 15.38, 151.98 29.18 M150.65 -0.35 C151.26 9.02, 150.73 17.47, 151.8 28.77 M151.08 29.44 C121.52 30.82, 89.9 29.51, 1.77 31.04 M150.57 29.42 C112.93 29.17, 74.5 30.57, 0.6 29.23 M0.65 29.41 C-0.72 21.52, -1.65 12.12, -1.33 -1.15 M0.71 29.27 C0.89 22.88, -0.56 16.99, -0.64 -0.32" stroke="#000000" stroke-width="1" fill="none"></path></g><g stroke-linecap="round" transform="translate(762.5 143.125) rotate(0 79.375 15.625)"><path d="M-0.35 0.12 C41.24 -0.55, 79.44 0.83, 158.27 0.45 M0.94 -0.17 C34.99 0.74, 68.74 0.91, 158.41 0.34 M158.57 -1.91 C159.66 8.63, 159.24 17.57, 158.53 31.11 M158.78 0.58 C158.06 12.08, 159.11 22.56, 157.75 31.96 M159.34 31.62 C97.29 30.5, 39.03 33.28, -0.88 30.04 M159.13 30.8 C107.32 32.54, 55.21 31.62, 0.16 32.09 M-0.47 32.81 C-1.51 21.07, -1.43 6.94, -1.84 -1.71 M0.64 31.01 C-1.03 21.98, -0.87 12.5, 0.91 0.62" stroke="#000000" stroke-width="1" fill="none"></path></g><g stroke-linecap="round"><g transform="translate(759.625 112.19682255092357) rotate(0 -25.059572688825483 26.999028474673196)"><path d="M-0.29 0.27 C-8.78 9.15, -43.41 44.05, -51.88 52.99 M1.76 -0.63 C-6.28 8.49, -40.74 45.83, -49.69 54.63" stroke="#000000" stroke-width="1" fill="none"></path></g><g transform="translate(759.625 112.19682255092357) rotate(0 -25.059572688825483 26.999028474673196)"><path d="M-37.11 25.52 C-39.99 32.87, -41.11 38.96, -48.41 55.55 M-37.22 27.01 C-41.85 35.11, -44.85 42.88, -49.12 54.55" stroke="#000000" stroke-width="1" fill="none"></path></g><g transform="translate(759.625 112.19682255092357) rotate(0 -25.059572688825483 26.999028474673196)"><path d="M-22.31 39.74 C-28.44 43.91, -32.82 46.85, -48.41 55.55 M-22.42 41.23 C-31.64 44.96, -39.14 48.4, -49.12 54.55" stroke="#000000" stroke-width="1" fill="none"></path></g></g><mask></mask><g stroke-linecap="round"><g transform="translate(760.2095516569202 165.98591362418574) rotate(0 -22.955962002775095 8.465743983919992)"><path d="M0.27 -1 C-7.24 1.8, -37.89 13.59, -45.34 16.51 M-1.04 1.08 C-8.67 4.09, -38.93 15.16, -46.18 17.94" stroke="#000000" stroke-width="1" fill="none"></path></g><g transform="translate(760.2095516569202 165.98591362418574) rotate(0 -22.955962002775095 8.465743983919992)"><path d="M-29.41 2.51 C-33.25 8.49, -38.36 12.27, -45.27 18.02 M-27.92 1.42 C-34.85 7.87, -42.11 14.24, -46.27 18.3" stroke="#000000" stroke-width="1" fill="none"></path></g><g transform="translate(760.2095516569202 165.98591362418574) rotate(0 -22.955962002775095 8.465743983919992)"><path d="M-23.61 18.05 C-29.03 19.73, -35.75 19.19, -45.27 18.02 M-22.12 16.96 C-31.1 17.8, -40.46 18.54, -46.27 18.3" stroke="#000000" stroke-width="1" fill="none"></path></g></g><mask></mask><g stroke-linecap="round"><g transform="translate(761.8981481481478 199.67337098307826) rotate(0 -24.75624515575373 -6.986489020042427)"><path d="M-1 0.19 C-9.14 -1.96, -41.1 -10.44, -49.12 -12.63 M0.67 -0.76 C-7.62 -3.24, -41.74 -11.8, -50.18 -14.16" stroke="#000000" stroke-width="1" fill="none"></path></g><g transform="translate(761.8981481481478 199.67337098307826) rotate(0 -24.75624515575373 -6.986489020042427)"><path d="M-24.57 -16.83 C-29.97 -16.39, -37.55 -14.49, -50.1 -12.92 M-25.66 -16.85 C-31.7 -16.86, -37.77 -15.37, -49.82 -14.17" stroke="#000000" stroke-width="1" fill="none"></path></g><g transform="translate(761.8981481481478 199.67337098307826) rotate(0 -24.75624515575373 -6.986489020042427)"><path d="M-29 -0.03 C-33.22 -4.18, -39.58 -6.92, -50.1 -12.92 M-30.1 -0.05 C-35.01 -4.52, -39.9 -7.5, -49.82 -14.17" stroke="#000000" stroke-width="1" fill="none"></path></g></g><mask></mask><g stroke-linecap="round"><g transform="translate(767.9221052631583 252.29252551989293) rotate(0 -26.814959980336425 -30.18293865355463)"><path d="M0.19 -0.21 C-8.77 -10.07, -44.46 -50.29, -53.46 -60.15 M-1.17 -1.37 C-10.21 -10.96, -44.98 -48.71, -53.82 -58.72" stroke="#000000" stroke-width="1" fill="none"></path></g><g transform="translate(767.9221052631583 252.29252551989293) rotate(0 -26.814959980336425 -30.18293865355463)"><path d="M-27.66 -42.81 C-36.08 -47.89, -43.38 -53.63, -52.57 -59.4 M-27.68 -44.79 C-37.09 -49.02, -45.09 -53.91, -53.83 -58.83" stroke="#000000" stroke-width="1" fill="none"></path></g><g transform="translate(767.9221052631583 252.29252551989293) rotate(0 -26.814959980336425 -30.18293865355463)"><path d="M-42.88 -29.05 C-46.27 -38.6, -48.66 -48.77, -52.57 -59.4 M-42.9 -31.02 C-47.2 -39.73, -50.1 -49.23, -53.83 -58.83" stroke="#000000" stroke-width="1" fill="none"></path></g></g><mask></mask><g transform="translate(800 68.75) rotate(0 30.508333206176758 9.599999999999909)"><text x="0" y="0" font-family="Virgil, Segoe UI Emoji" font-size="16px" fill="#000000" text-anchor="start" style="white-space: pre;" direction="ltr" dominant-baseline="text-before-edge">Presses</text></g><g stroke-linecap="round" transform="translate(162.3125 103.75) rotate(0 76.25 14.599999999999909)"><path d="M1.31 -1.35 C42.78 -1.53, 87.44 -0.37, 152.36 -0.29 M0.15 0.92 C54.48 2.3, 110.19 0.46, 151.65 0.54 M150.67 -1.45 C153.61 10.36, 152.96 19.35, 150.93 30.85 M152.62 -0.98 C153.31 6.54, 152.26 15.27, 151.97 29.92 M152.2 28.51 C116.36 29.67, 83.81 28.98, 1.99 27.39 M153.21 28.3 C106.18 27.15, 58.18 27.67, -0.9 28.29 M1.87 27.71 C-1.99 22.17, 1.86 13.36, -0.69 -0.39 M-0.08 28.3 C0.66 19.5, -0.29 10.2, 0.3 -0.67" stroke="#000000" stroke-width="1" fill="none"></path></g><g transform="translate(215.08749961853027 108.75) rotate(0 23.475000381469727 9.599999999999909)"><text x="23.475000381469727" y="0" font-family="Virgil, Segoe UI Emoji" font-size="16px" fill="#000000" text-anchor="middle" style="white-space: pre;" direction="ltr" dominant-baseline="text-before-edge">Queue</text></g><g stroke-linecap="round" transform="translate(167.3125 286.25) rotate(0 76.25 14.599999999999909)"><path d="M-1.96 -0.97 C38.37 0.12, 74.04 1.42, 152.18 0.33 M-0.87 -0.79 C53.93 0.98, 107.8 1.06, 152.66 -0.34 M153.2 -1.14 C152.47 6, 154.56 16.07, 154.31 30.38 M152.9 0.16 C151.37 8.88, 152.02 19.39, 152.08 30.14 M153.12 27.7 C120.73 27.27, 88.18 28.93, -0.39 30.37 M152.59 29.25 C91.42 27.19, 31.65 28.73, 0.61 29.48 M0.75 30.57 C0.81 22.3, -1.97 17.48, -1.07 -1.19 M-0.35 28.8 C0.19 22.52, 0.81 15.18, -0.13 -0.49" stroke="#000000" stroke-width="1" fill="none"></path></g><g transform="translate(220.08749961853027 291.25) rotate(0 23.475000381469727 9.599999999999909)"><text x="23.475000381469727" y="0" font-family="Virgil, Segoe UI Emoji" font-size="16px" fill="#000000" text-anchor="middle" style="white-space: pre;" direction="ltr" dominant-baseline="text-before-edge">Queue</text></g><g stroke-linecap="round" transform="translate(166.0625 163.75) rotate(0 75.625 14.599999999999909)"><path d="M-1.89 -1.51 C43.67 0.67, 90.97 0.73, 152.42 -0.28 M-0.16 0.85 C31.84 -2.38, 61.05 -0.85, 151.6 0.06 M152.34 0.57 C151.42 6.14, 149.42 14.37, 150.14 31.03 M151.8 -0.6 C150.78 9.97, 150.75 18.69, 150.49 29.34 M149.31 29.9 C107.81 28.68, 66.94 26.87, 0.14 28.27 M151.74 28.48 C118.41 27.64, 86.06 26.92, -0.54 29.52 M-1.9 29.34 C1.68 17.31, -0.96 8.01, 0.28 -1.01 M0.51 28.67 C-0.41 19.59, 0.33 10.65, -0.13 0.03" stroke="#000000" stroke-width="1" fill="none"></path></g><g transform="translate(218.21249961853027 168.75) rotate(0 23.475000381469727 9.599999999999909)"><text x="23.475000381469727" y="0" font-family="Virgil, Segoe UI Emoji" font-size="16px" fill="#000000" text-anchor="middle" style="white-space: pre;" direction="ltr" dominant-baseline="text-before-edge">Queue</text></g><g stroke-linecap="round" transform="translate(161.0625 45) rotate(0 75.625 15.625)"><path d="M-1.89 -0.35 C35.02 0.86, 71.49 0.87, 149.34 0.29 M0.89 -0.99 C58.42 -0.75, 118.88 -1.23, 150.43 -0.92 M151.69 -0.22 C149.85 8.75, 150.31 16.04, 151.4 31.49 M150.74 0.99 C150.89 7.05, 150.66 12.79, 151.1 31.1 M150.96 31.25 C113.07 29.96, 71.05 30.85, -1.75 32.67 M150.55 31.05 C118.63 29.25, 87.27 30.49, 0.56 32.18 M1.95 29.76 C-0.39 23.81, 0.57 16.14, 0.12 -0.16 M-0.43 30.58 C0.14 24, -0.29 18.13, -0.62 0.38" stroke="#000000" stroke-width="1" fill="none"></path></g><g transform="translate(213.21249961853027 51.02500000000009) rotate(0 23.475000381469727 9.599999999999909)"><text x="23.475000381469727" y="0" font-family="Virgil, Segoe UI Emoji" font-size="16px" fill="#000000" text-anchor="middle" style="white-space: pre;" direction="ltr" dominant-baseline="text-before-edge">Queue</text></g><g stroke-linecap="round" transform="translate(164.8125 225) rotate(0 75.625 15.625)"><path d="M1.12 -0.08 C42.94 1.95, 86.49 1.07, 152.37 -1.79 M-0.35 -0.04 C34.47 1.23, 70.6 0.85, 150.96 0.83 M150.98 -1.9 C153.17 12.17, 153.17 24.99, 151.7 29.79 M150.34 -0.53 C151.11 10.55, 150.95 20.92, 150.34 31.51 M151.4 30.07 C112.83 30.59, 75 31.28, 1.91 31.99 M150.47 30.4 C117.1 32.02, 84.07 31.61, -0.84 32.24 M1.09 30.66 C-1.8 23.86, -1.19 13.51, -1.33 -1.34 M0 31.4 C0.72 23.66, -0.02 16.32, 0.71 -0.92" stroke="#000000" stroke-width="1" fill="none"></path></g><g transform="translate(216.96249961853027 231.0250000000001) rotate(0 23.475000381469727 9.599999999999909)"><text x="23.475000381469727" y="0" font-family="Virgil, Segoe UI Emoji" font-size="16px" fill="#000000" text-anchor="middle" style="white-space: pre;" direction="ltr" dominant-baseline="text-before-edge">Queue</text></g><g stroke-linecap="round" transform="translate(63.75 43.75) rotate(0 11.875 13.125)"><path d="M15 1.03 C17.34 1.28, 19.69 2.53, 21.06 4.74 C22.43 6.96, 23.18 11.4, 23.21 14.31 C23.25 17.22, 22.82 20.32, 21.26 22.18 C19.71 24.04, 16.43 25.12, 13.88 25.47 C11.32 25.83, 8.25 25.53, 5.94 24.32 C3.63 23.12, 0.9 20.92, 0.03 18.24 C-0.84 15.55, -0.36 10.8, 0.7 8.19 C1.77 5.57, 4.12 3.94, 6.42 2.54 C8.73 1.14, 12.97 -0.03, 14.52 -0.2 C16.08 -0.38, 15.8 1.03, 15.76 1.49 M14.39 1.64 C16.69 2.27, 18.59 4.28, 20.38 6.3 C22.16 8.33, 25.15 11.17, 25.11 13.79 C25.07 16.41, 22.21 20.02, 20.13 22.02 C18.05 24.02, 15.02 25.37, 12.64 25.8 C10.25 26.24, 7.77 26.27, 5.83 24.64 C3.89 23, 1.81 18.97, 1.01 16.01 C0.21 13.05, 0.03 9.29, 1.06 6.88 C2.09 4.47, 4.81 2.74, 7.2 1.55 C9.59 0.36, 14.12 -0.11, 15.41 -0.25 C16.69 -0.38, 14.77 0.5, 14.9 0.73" stroke="#000000" stroke-width="1" fill="none"></path></g><g stroke-linecap="round" transform="translate(71.875 290.625) rotate(0 11.875 13.125)"><path d="M12.32 -0.1 C14.66 0.01, 18.76 1.26, 20.79 3.4 C22.82 5.53, 24.53 9.79, 24.53 12.72 C24.53 15.64, 22.5 18.65, 20.77 20.96 C19.04 23.26, 16.66 25.84, 14.16 26.54 C11.66 27.23, 7.78 26.59, 5.76 25.15 C3.73 23.7, 2.89 20.56, 2.03 17.89 C1.17 15.21, 0.03 11.75, 0.57 9.1 C1.11 6.45, 2.85 3.35, 5.29 2.01 C7.74 0.66, 13.4 1.19, 15.23 1.03 C17.06 0.86, 16.46 0.93, 16.26 1 M10.69 -0.42 C13 -0.48, 17.11 2.33, 19.12 3.97 C21.14 5.6, 22.27 6.98, 22.76 9.37 C23.26 11.76, 23.04 15.81, 22.09 18.3 C21.14 20.79, 19.34 23.17, 17.07 24.28 C14.79 25.4, 10.88 25.5, 8.46 25 C6.04 24.5, 4.14 23.71, 2.54 21.28 C0.94 18.84, -1.37 13.35, -1.15 10.39 C-0.94 7.43, 1.8 5.41, 3.84 3.51 C5.88 1.61, 9.66 -0.39, 11.11 -1.01 C12.55 -1.64, 12.2 -0.48, 12.52 -0.22" stroke="#000000" stroke-width="1" fill="none"></path></g><g stroke-linecap="round" transform="translate(69.375 228.125) rotate(0 11.875 13.125)"><path d="M17.21 1.92 C19.44 3.26, 21.21 6.53, 22.31 8.93 C23.4 11.33, 24.44 13.89, 23.8 16.32 C23.15 18.76, 20.57 22.06, 18.44 23.53 C16.31 25, 13.54 25.24, 11.01 25.15 C8.49 25.05, 5.24 24.84, 3.3 22.95 C1.35 21.06, -0.43 16.77, -0.65 13.82 C-0.87 10.87, 0.35 7.38, 1.96 5.26 C3.58 3.13, 6.08 1.44, 9.03 1.07 C11.97 0.7, 17.77 2.56, 19.62 3.03 C21.47 3.5, 20.38 3.79, 20.12 3.88 M13.52 0.09 C16.12 0.4, 20.59 1.82, 22.12 3.96 C23.64 6.09, 23.01 9.83, 22.65 12.9 C22.28 15.97, 21.53 20.13, 19.91 22.38 C18.28 24.62, 15.31 25.9, 12.89 26.38 C10.46 26.86, 7.16 26.93, 5.34 25.26 C3.52 23.58, 2.88 19.12, 1.98 16.32 C1.07 13.52, -0.8 10.98, -0.11 8.48 C0.58 5.98, 3.96 2.54, 6.13 1.33 C8.31 0.11, 11.71 1.09, 12.93 1.19 C14.14 1.29, 13.41 2.1, 13.42 1.95" stroke="#000000" stroke-width="1" fill="none"></path></g><g stroke-linecap="round" transform="translate(65.625 165.625) rotate(0 11.875 13.125)"><path d="M8.7 0.08 C11.21 -0.77, 15.04 0.39, 17.2 1.58 C19.35 2.77, 20.69 4.71, 21.63 7.22 C22.56 9.72, 23.39 13.87, 22.81 16.62 C22.23 19.37, 19.89 22.2, 18.15 23.69 C16.4 25.19, 14.72 25.8, 12.37 25.58 C10.01 25.35, 6.04 24.17, 4.01 22.33 C1.99 20.5, 0.47 17.18, 0.24 14.59 C0 12.01, 0.68 9.25, 2.6 6.82 C4.53 4.39, 9.85 1.08, 11.78 0.01 C13.7 -1.06, 14.23 0.12, 14.15 0.4 M11.8 1.14 C14.23 0.86, 16.87 0.54, 18.8 1.99 C20.72 3.44, 22.64 7.05, 23.34 9.83 C24.03 12.61, 24.13 16.18, 22.95 18.68 C21.76 21.19, 18.62 23.55, 16.22 24.89 C13.82 26.22, 11.21 27.72, 8.55 26.71 C5.9 25.7, 1.71 21.44, 0.29 18.82 C-1.13 16.2, -0.55 13.79, 0.05 10.99 C0.64 8.19, 1.7 3.94, 3.85 2.02 C5.99 0.11, 11.31 -0.07, 12.9 -0.48 C14.49 -0.9, 13.76 -0.59, 13.4 -0.47" stroke="#000000" stroke-width="1" fill="none"></path></g><g stroke-linecap="round" transform="translate(65.625 104.375) rotate(0 11.875 13.125)"><path d="M7.22 1.63 C9.56 0.35, 13.97 -0.69, 16.49 0.01 C19 0.71, 21.03 3.45, 22.32 5.84 C23.62 8.23, 24.71 11.31, 24.28 14.35 C23.85 17.4, 21.9 22.1, 19.73 24.11 C17.57 26.11, 13.93 26.51, 11.27 26.38 C8.61 26.26, 5.68 25.04, 3.79 23.35 C1.89 21.66, 0.15 18.94, -0.1 16.23 C-0.35 13.52, 0.79 9.75, 2.27 7.09 C3.76 4.43, 7.57 1.38, 8.82 0.27 C10.08 -0.85, 9.7 0.14, 9.81 0.38 M9.74 -0.23 C11.9 -1.15, 13.64 -0.51, 15.6 0.89 C17.56 2.3, 20.37 5.56, 21.49 8.18 C22.62 10.8, 22.9 13.9, 22.36 16.62 C21.82 19.35, 19.94 23.13, 18.27 24.52 C16.59 25.9, 14.89 25.29, 12.31 24.94 C9.73 24.59, 4.8 24.24, 2.79 22.43 C0.78 20.62, 0.55 16.68, 0.25 14.07 C-0.05 11.46, -0.3 8.79, 1.01 6.77 C2.32 4.76, 6.96 3.2, 8.12 2 C9.27 0.8, 7.98 -0.15, 7.94 -0.43" stroke="#000000" stroke-width="1" fill="none"></path></g><g stroke-linecap="round" transform="translate(425 241.25) rotate(0 15 15)"><path d="M16.89 -0.61 C20.36 6.19, 23.77 9.84, 29.87 17.63 M15.76 0.07 C19.36 2.73, 22.23 6.75, 30.71 15.37 M30.6 15.63 C25.97 17.73, 24.6 20.7, 15.07 29.59 M30.1 16.79 C25.73 21.87, 19.54 27.3, 15.26 30.11 M14.76 31.96 C10.32 26.56, 7.36 22.77, 0.67 14.99 M15.89 29.98 C10.14 24.75, 5.83 21.28, -0.62 16.16 M-0.08 17.4 C4.23 12.82, 8.74 10.17, 17.42 1.2 M0.25 16.18 C5.4 11.08, 9.71 5.17, 16.32 -0.51" stroke="#000000" stroke-width="1" fill="none"></path></g><g stroke-linecap="round" transform="translate(421.25 187.5) rotate(0 15 15)"><path d="M15.39 0.13 C22.11 4.49, 25.52 10.2, 31.63 14.05 M16.07 0.55 C19.2 5.15, 23.94 9.8, 29.37 15.28 M29.63 15.25 C25.22 20.44, 21.68 21.75, 15.59 31.46 M30.79 16.93 C26.15 20.48, 21.85 24.26, 16.11 29.68 M17.96 28.68 C10.66 24.96, 4.97 20.7, -1.01 16.39 M15.98 29.37 C8.83 24.77, 3.66 18.57, 0.16 15.19 M1.4 16.59 C3.7 14.23, 7.93 10.67, 17.2 0.53 M0.18 16.07 C4.11 11.31, 7.24 8.67, 15.49 0.92" stroke="#000000" stroke-width="1" fill="none"></path></g><g stroke-linecap="round" transform="translate(418.75 140) rotate(0 15 15)"><path d="M16.13 1.48 C20.36 6.02, 25.8 12.94, 28.05 15.66 M16.55 -0.63 C19.59 3.61, 22.76 6.31, 29.28 15.37 M29.25 14.52 C26.69 18.7, 20.25 24.43, 17.46 30.41 M30.93 16.71 C26.48 20.53, 22.26 23.23, 15.68 30.52 M14.68 30.31 C11.24 26.18, 7.07 20.67, 0.39 17.71 M15.37 29.11 C10.19 24.85, 3.38 19.64, -0.81 15.11 M0.59 16.17 C4.91 13.6, 8.02 10.5, 16.53 -1.24 M0.07 16.34 C4.23 10.51, 10.51 5.24, 16.92 0.05" stroke="#000000" stroke-width="1" fill="none"></path></g><g stroke-linecap="round" transform="translate(418.75 86.25) rotate(0 15 15)"><path d="M15.36 0.34 C19.65 5.83, 21.6 8.17, 28.34 15.52 M16.59 0.15 C21.1 4.37, 23.96 9.28, 30.17 16.3 M31.07 14.3 C25.08 19.42, 23.53 24.18, 15.02 30.2 M29.97 16.91 C24.07 21.53, 19.17 27.27, 16.03 29.39 M16 30.26 C10.39 23.44, 3.75 20.59, 1.51 15.78 M16.18 30.11 C10.7 25.85, 5.74 20.63, -0.94 15.96 M1.61 17.01 C7.29 11.27, 12.32 2.91, 16.39 0.5 M-0.84 15.65 C5.4 10.35, 11.09 5.81, 15.86 -0.21" stroke="#000000" stroke-width="1" fill="none"></path></g><g transform="translate(403.75 31.25) rotate(0 42.70000076293945 9.599999999999909)"><text x="0" y="0" font-family="Virgil, Segoe UI Emoji" font-size="16px" fill="#000000" text-anchor="start" style="white-space: pre;" direction="ltr" dominant-baseline="text-before-edge">newspapers</text></g><g stroke-linecap="round"><g transform="translate(500 165.958394342455) rotate(0 -23.097856042748163 -29.48303934851606)"><path d="M0.98 1.02 C-6.59 -8.79, -38.49 -49.68, -46.57 -59.99 M0.03 0.51 C-7.53 -9, -39.11 -48.37, -47.17 -58.44" stroke="#000000" stroke-width="1" fill="none"></path></g><g transform="translate(500 165.958394342455) rotate(0 -23.097856042748163 -29.48303934851606)"><path d="M-19.84 -41.78 C-26.54 -46.19, -33.08 -47.15, -45.55 -59.99 M-20.64 -43.49 C-32.24 -49.63, -40.95 -54.09, -46.5 -58.99" stroke="#000000" stroke-width="1" fill="none"></path></g><g transform="translate(500 165.958394342455) rotate(0 -23.097856042748163 -29.48303934851606)"><path d="M-35.85 -28.95 C-39.21 -36.07, -42.52 -39.62, -45.55 -59.99 M-36.66 -30.65 C-42.38 -41.54, -45.11 -50.79, -46.5 -58.99" stroke="#000000" stroke-width="1" fill="none"></path></g></g><mask></mask><g stroke-linecap="round"><g transform="translate(505 174.89937360643717) rotate(0 -24.881616915922677 -11.64567281924883)"><path d="M-0.73 1.12 C-9.1 -2.54, -42.71 -18.45, -50.85 -22.54 M1.09 0.67 C-6.85 -3.3, -40.1 -20.59, -48.64 -24.41" stroke="#000000" stroke-width="1" fill="none"></path></g><g transform="translate(505 174.89937360643717) rotate(0 -24.881616915922677 -11.64567281924883)"><path d="M-19.45 -23.12 C-27.24 -21.87, -35.4 -22.13, -49.87 -25.72 M-21.48 -21.76 C-31.3 -21.83, -39.37 -23.66, -48.74 -23.68" stroke="#000000" stroke-width="1" fill="none"></path></g><g transform="translate(505 174.89937360643717) rotate(0 -24.881616915922677 -11.64567281924883)"><path d="M-27.7 -6.24 C-33.38 -9.08, -39.51 -13.49, -49.87 -25.72 M-29.73 -4.87 C-36.66 -10.87, -41.86 -18.58, -48.74 -23.68" stroke="#000000" stroke-width="1" fill="none"></path></g></g><mask></mask><g stroke-linecap="round"><g transform="translate(507.5 187.5) rotate(0 -27.89791544167224 7.3002291102372965)"><path d="M-1.08 -0.46 C-10.37 2.08, -47.37 12.44, -56.34 14.78 M0.55 -1.75 C-8.32 1.05, -44.84 13.67, -54.18 16.35" stroke="#000000" stroke-width="1" fill="none"></path></g><g transform="translate(507.5 187.5) rotate(0 -27.89791544167224 7.3002291102372965)"><path d="M-32.33 -2.91 C-37.1 3.55, -44.65 7.61, -54.43 14.64 M-32.15 -1.42 C-36.66 3.08, -42.31 6.38, -54.68 16.75" stroke="#000000" stroke-width="1" fill="none"></path></g><g transform="translate(507.5 187.5) rotate(0 -27.89791544167224 7.3002291102372965)"><path d="M-26.37 15.73 C-32.54 17.53, -41.55 17, -54.43 14.64 M-26.19 17.22 C-31.92 17.65, -38.89 16.84, -54.68 16.75" stroke="#000000" stroke-width="1" fill="none"></path></g></g><mask></mask><g stroke-linecap="round"><g transform="translate(529.9045618288251 211.75) rotate(0 -38.47762376626633 19.615603127354007)"><path d="M0.19 -1.02 C-12.66 5.87, -64.48 33.32, -77.14 40.25 M-1.17 1.05 C-13.64 7.72, -62.37 32.28, -74.89 38.58" stroke="#000000" stroke-width="1" fill="none"></path></g><g transform="translate(529.9045618288251 211.75) rotate(0 -38.47762376626633 19.615603127354007)"><path d="M-56.05 15.25 C-59.2 24.01, -64.72 28.91, -74.62 38.43 M-54.36 15.73 C-58.93 21.66, -65.09 28.46, -75.42 38.83" stroke="#000000" stroke-width="1" fill="none"></path></g><g transform="translate(529.9045618288251 211.75) rotate(0 -38.47762376626633 19.615603127354007)"><path d="M-46.81 33.57 C-52.52 36.93, -60.78 36.41, -74.62 38.43 M-45.12 34.06 C-52.25 35.05, -60.9 36.9, -75.42 38.83" stroke="#000000" stroke-width="1" fill="none"></path></g></g><mask></mask><g stroke-linecap="round"><g transform="translate(416.25 100) rotate(0 -47.90033159251334 -17.513842922467575)"><path d="M1.16 -0.67 C-15.04 -6.27, -80.05 -28.87, -96.52 -34.67 M0.31 1.6 C-16.02 -4.28, -80.48 -30.62, -96.96 -36.63" stroke="#000000" stroke-width="1" fill="none"></path></g><g transform="translate(416.25 100) rotate(0 -47.90033159251334 -17.513842922467575)"><path d="M-68.08 -34.35 C-77.05 -36.24, -89.05 -35.32, -97.71 -37.48 M-66.73 -35.12 C-74.6 -35.89, -81.59 -35.76, -96.91 -36.42" stroke="#000000" stroke-width="1" fill="none"></path></g><g transform="translate(416.25 100) rotate(0 -47.90033159251334 -17.513842922467575)"><path d="M-75.51 -15.22 C-81.68 -23.97, -91.05 -29.82, -97.71 -37.48 M-74.16 -16 C-80.31 -21.21, -85.56 -25.54, -96.91 -36.42" stroke="#000000" stroke-width="1" fill="none"></path></g></g><mask></mask><g stroke-linecap="round"><g transform="translate(422.5 106.25) rotate(0 -51.52110104668873 38.930860671699065)"><path d="M-0.02 0.35 C-16.99 13.18, -85.15 64.32, -102.22 77.06 M-1.49 -0.51 C-18.56 12.48, -86.07 65.33, -103.02 78.37" stroke="#000000" stroke-width="1" fill="none"></path></g><g transform="translate(422.5 106.25) rotate(0 -51.52110104668873 38.930860671699065)"><path d="M-86.47 53.44 C-92.03 59.84, -96.72 65.28, -104.92 78.29 M-86.3 52.47 C-91.23 60.5, -97.5 68.21, -102.88 77.5" stroke="#000000" stroke-width="1" fill="none"></path></g><g transform="translate(422.5 106.25) rotate(0 -51.52110104668873 38.930860671699065)"><path d="M-73.88 69.65 C-82.82 71.72, -90.87 72.83, -104.92 78.29 M-73.71 68.67 C-82.4 71.94, -92.46 74.78, -102.88 77.5" stroke="#000000" stroke-width="1" fill="none"></path></g></g><mask></mask><g stroke-linecap="round"><g transform="translate(417.5 161.25) rotate(0 -46.58253330732691 40.17993306098492)"><path d="M0.68 0.2 C-14.66 13.39, -77.14 66.52, -92.76 80.14 M-0.42 -0.74 C-15.88 13.07, -78.24 67.65, -93.85 81.1" stroke="#000000" stroke-width="1" fill="none"></path></g><g transform="translate(417.5 161.25) rotate(0 -46.58253330732691 40.17993306098492)"><path d="M-78.97 54.42 C-84.46 60.43, -85.02 65.88, -92.33 81.7 M-79.24 54.43 C-82.36 62.24, -85.61 68.56, -93.81 80.24" stroke="#000000" stroke-width="1" fill="none"></path></g><g transform="translate(417.5 161.25) rotate(0 -46.58253330732691 40.17993306098492)"><path d="M-65.51 69.9 C-74.39 72.24, -78.22 73.92, -92.33 81.7 M-65.77 69.91 C-72.34 73.85, -78.91 76.35, -93.81 80.24" stroke="#000000" stroke-width="1" fill="none"></path></g></g><mask></mask><g stroke-linecap="round"><g transform="translate(416.25 158.75) rotate(0 -46.54213040168406 -45.82161968697801)"><path d="M-0.1 1.06 C-15.3 -14.17, -76.76 -75.57, -92.2 -90.81 M-1.61 0.57 C-16.86 -15.07, -77.66 -77.23, -92.98 -92.7" stroke="#000000" stroke-width="1" fill="none"></path></g><g transform="translate(416.25 158.75) rotate(0 -46.54213040168406 -45.82161968697801)"><path d="M-64.14 -79.29 C-71.16 -82.97, -76.38 -84.35, -92.31 -91.55 M-66.11 -80.77 C-76.94 -85.11, -85.45 -89.54, -93.32 -93.56" stroke="#000000" stroke-width="1" fill="none"></path></g><g transform="translate(416.25 158.75) rotate(0 -46.54213040168406 -45.82161968697801)"><path d="M-78.77 -64.9 C-82.65 -71.71, -84.68 -76.25, -92.31 -91.55 M-80.75 -66.38 C-86.02 -76.1, -89.06 -85.9, -93.32 -93.56" stroke="#000000" stroke-width="1" fill="none"></path></g></g><mask></mask><g stroke-linecap="round"><g transform="translate(423.75 208.75) rotate(0 -52.69907257090313 -45.61559425001019)"><path d="M-0.39 0.93 C-18.35 -14.35, -89.36 -75.11, -107 -90.45 M1.61 0.37 C-16.03 -14.74, -86.58 -77.14, -104.69 -92.16" stroke="#000000" stroke-width="1" fill="none"></path></g><g transform="translate(423.75 208.75) rotate(0 -52.69907257090313 -45.61559425001019)"><path d="M-75.08 -82.81 C-85.58 -85.52, -96.88 -89.82, -102.88 -92.31 M-76.04 -82 C-87.45 -85.28, -97.81 -89.69, -104.72 -91.82" stroke="#000000" stroke-width="1" fill="none"></path></g><g transform="translate(423.75 208.75) rotate(0 -52.69907257090313 -45.61559425001019)"><path d="M-88.46 -67.25 C-94.27 -75.56, -100.72 -85.5, -102.88 -92.31 M-89.42 -66.45 C-95.9 -75.56, -101.22 -85.84, -104.72 -91.82" stroke="#000000" stroke-width="1" fill="none"></path></g></g><mask></mask><g stroke-linecap="round"><g transform="translate(428.75 263.75) rotate(0 -54.018878402095424 18.075652458350987)"><path d="M-0.25 -0.26 C-18.23 5.88, -90.71 30.22, -108.86 36.56 M1.82 -1.45 C-16.25 4.85, -91.21 30.82, -109.86 37.6" stroke="#000000" stroke-width="1" fill="none"></path></g><g transform="translate(428.75 263.75) rotate(0 -54.018878402095424 18.075652458350987)"><path d="M-87.15 18.35 C-93.46 22.09, -96.54 26.9, -108.44 36.33 M-86.99 18.27 C-92.74 23.03, -97.97 27.66, -110.07 37.99" stroke="#000000" stroke-width="1" fill="none"></path></g><g transform="translate(428.75 263.75) rotate(0 -54.018878402095424 18.075652458350987)"><path d="M-80.3 37.69 C-88.08 37.13, -92.68 37.65, -108.44 36.33 M-80.14 37.61 C-87.71 37.34, -94.7 36.97, -110.07 37.99" stroke="#000000" stroke-width="1" fill="none"></path></g></g><mask></mask><g stroke-linecap="round"><g transform="translate(428.75 251.25) rotate(0 -51.10486160904179 -2.32037834625703)"><path d="M-0.92 -0.93 C-18.1 -2.02, -85.41 -5.27, -102.64 -5.83 M0.8 1.19 C-16.48 0.17, -85.32 -3.49, -103.01 -4.73" stroke="#000000" stroke-width="1" fill="none"></path></g><g transform="translate(428.75 251.25) rotate(0 -51.10486160904179 -2.32037834625703)"><path d="M-75.81 -11.42 C-85.31 -11.51, -92.45 -7.27, -104.58 -3.61 M-73.38 -13.58 C-82.41 -10.39, -90.05 -9.5, -102.65 -5.28" stroke="#000000" stroke-width="1" fill="none"></path></g><g transform="translate(428.75 251.25) rotate(0 -51.10486160904179 -2.32037834625703)"><path d="M-77.05 9.06 C-86.25 2.06, -92.97 -0.62, -104.58 -3.61 M-74.62 6.9 C-83.13 4.55, -90.44 -0.11, -102.65 -5.28" stroke="#000000" stroke-width="1" fill="none"></path></g></g><mask></mask><g transform="translate(121.25 10) rotate(0 111.85832977294922 9.599999999999909)"><text x="0" y="0" font-family="Virgil, Segoe UI Emoji" font-size="16px" fill="#000000" text-anchor="start" style="white-space: pre;" direction="ltr" dominant-baseline="text-before-edge">Mailboxes/Front Door Gound</text></g><g stroke-linecap="round"><g transform="translate(158.75 62.5) rotate(0 -33.37141908407216 -3.842798621579959)"><path d="M-0.88 0.72 C-11.84 -0.77, -55.71 -7.22, -66.52 -8.4 M0.86 0.05 C-10.22 -1.36, -56.42 -5.98, -67.61 -7.34" stroke="#000000" stroke-width="1" fill="none"></path></g><g transform="translate(158.75 62.5) rotate(0 -33.37141908407216 -3.842798621579959)"><path d="M-37.27 -14.92 C-46.87 -12.15, -50.4 -10.16, -69.07 -7.48 M-37.92 -14.55 C-47.72 -12.03, -55.83 -10.56, -67 -6.71" stroke="#000000" stroke-width="1" fill="none"></path></g><g transform="translate(158.75 62.5) rotate(0 -33.37141908407216 -3.842798621579959)"><path d="M-39.5 5.48 C-48.66 3.41, -51.66 0.56, -69.07 -7.48 M-40.15 5.85 C-49.31 2.52, -56.78 -1.84, -67 -6.71" stroke="#000000" stroke-width="1" fill="none"></path></g></g><mask></mask><g stroke-linecap="round"><g transform="translate(157.5 121.25) rotate(0 -33.536551344730015 -1.8926073994859962)"><path d="M-0.44 -0.33 C-12.06 -0.45, -57.32 -1.52, -68.6 -1.74 M1.53 -1.54 C-9.83 -1.92, -54.67 -3.13, -66.46 -3.46" stroke="#000000" stroke-width="1" fill="none"></path></g><g transform="translate(157.5 121.25) rotate(0 -33.536551344730015 -1.8926073994859962)"><path d="M-38.54 -14.77 C-47.94 -10.36, -58.92 -4.68, -67.99 -4.3 M-38.47 -12.86 C-44.62 -11.21, -49.21 -8.65, -66.59 -2.65" stroke="#000000" stroke-width="1" fill="none"></path></g><g transform="translate(157.5 121.25) rotate(0 -33.536551344730015 -1.8926073994859962)"><path d="M-39.11 5.75 C-48.11 2.13, -58.87 -0.21, -67.99 -4.3 M-39.04 7.66 C-45.01 5.2, -49.49 3.65, -66.59 -2.65" stroke="#000000" stroke-width="1" fill="none"></path></g></g><mask></mask><g stroke-linecap="round"><g transform="translate(161.25 180) rotate(0 -35.160342556722526 0.3210929130391378)"><path d="M0.1 0.53 C-11.41 0.64, -57.95 -0.28, -69.65 -0.35 M-1.31 -0.23 C-12.9 0.14, -58.82 0.72, -70.42 1" stroke="#000000" stroke-width="1" fill="none"></path></g><g transform="translate(161.25 180) rotate(0 -35.160342556722526 0.3210929130391378)"><path d="M-41.53 -9.18 C-50.14 -7.2, -56.47 -3.93, -71.32 -0.43 M-41.5 -10.63 C-48.92 -6.81, -55.39 -5.46, -70.58 0.4" stroke="#000000" stroke-width="1" fill="none"></path></g><g transform="translate(161.25 180) rotate(0 -35.160342556722526 0.3210929130391378)"><path d="M-41.16 11.34 C-49.69 8.16, -56.12 6.27, -71.32 -0.43 M-41.13 9.89 C-48.78 9.17, -55.34 6, -70.58 0.4" stroke="#000000" stroke-width="1" fill="none"></path></g></g><mask></mask><g stroke-linecap="round"><g transform="translate(158.75 240) rotate(0 -29.371520335599712 2.4668802630155824)"><path d="M1.09 -0.96 C-8.81 -0.12, -49.93 5, -59.83 5.9 M0.2 1.14 C-9.31 1.58, -47.84 3.53, -57.68 4.25" stroke="#000000" stroke-width="1" fill="none"></path></g><g transform="translate(158.75 240) rotate(0 -29.371520335599712 2.4668802630155824)"><path d="M-32.24 -9.28 C-36.18 -3.42, -45.76 -2.84, -56.15 2.36 M-31.37 -7.72 C-38.74 -4.13, -49.17 0.5, -58.4 3.97" stroke="#000000" stroke-width="1" fill="none"></path></g><g transform="translate(158.75 240) rotate(0 -29.371520335599712 2.4668802630155824)"><path d="M-31.03 10.85 C-35.44 11.41, -45.33 6.68, -56.15 2.36 M-30.16 12.41 C-37.79 9.43, -48.61 7.48, -58.4 3.97" stroke="#000000" stroke-width="1" fill="none"></path></g></g><mask></mask><g stroke-linecap="round"><g transform="translate(163.75 305) rotate(0 -34.328461666032695 0.5019189368933894)"><path d="M-0.02 -0.87 C-11.35 -0.65, -57.56 1.33, -68.63 1.87 M-1.5 1.29 C-12.4 1.11, -55.65 0.19, -66.52 0.07" stroke="#000000" stroke-width="1" fill="none"></path></g><g transform="translate(163.75 305) rotate(0 -34.328461666032695 0.5019189368933894)"><path d="M-39.6 -11.6 C-43.94 -5.62, -49.97 -6.35, -67.63 0.14 M-37.64 -9.41 C-45.26 -8.03, -53.27 -5.66, -65.98 0.55" stroke="#000000" stroke-width="1" fill="none"></path></g><g transform="translate(163.75 305) rotate(0 -34.328461666032695 0.5019189368933894)"><path d="M-39.94 8.92 C-44.29 9.94, -50.24 4.24, -67.63 0.14 M-37.98 11.1 C-45.39 7.1, -53.3 4.07, -65.98 0.55" stroke="#000000" stroke-width="1" fill="none"></path></g></g><mask></mask><g transform="translate(100 322.10131543125044) rotate(0 44.54166793823242 38.40000000000009)"><text x="0" y="0" font-family="Virgil, Segoe UI Emoji" font-size="16.686951903645664px" fill="#000000" text-anchor="start" style="white-space: pre;" direction="ltr" dominant-baseline="text-before-edge">come from</text><text x="0" y="19.2" font-family="Virgil, Segoe UI Emoji" font-size="16.686951903645664px" fill="#000000" text-anchor="start" style="white-space: pre;" direction="ltr" dominant-baseline="text-before-edge">vacation</text><text x="0" y="38.4" font-family="Virgil, Segoe UI Emoji" font-size="16.686951903645664px" fill="#000000" text-anchor="start" style="white-space: pre;" direction="ltr" dominant-baseline="text-before-edge">and check</text><text x="0" y="57.599999999999994" font-family="Virgil, Segoe UI Emoji" font-size="16.686951903645664px" fill="#000000" text-anchor="start" style="white-space: pre;" direction="ltr" dominant-baseline="text-before-edge">newspapers</text></g><g transform="translate(10 41.25) rotate(0 17.491666793823242 9.599999999999909)"><text x="0" y="0" font-family="Virgil, Segoe UI Emoji" font-size="16px" fill="#000000" text-anchor="start" style="white-space: pre;" direction="ltr" dominant-baseline="text-before-edge">Alice</text></g><g transform="translate(12.5 105) rotate(0 14.316666603088379 9.599999999999909)"><text x="0" y="0" font-family="Virgil, Segoe UI Emoji" font-size="16px" fill="#000000" text-anchor="start" style="white-space: pre;" direction="ltr" dominant-baseline="text-before-edge">Bob</text></g><g transform="translate(15 165) rotate(0 16.149999618530273 9.599999999999909)"><text x="0" y="0" font-family="Virgil, Segoe UI Emoji" font-size="16px" fill="#000000" text-anchor="start" style="white-space: pre;" direction="ltr" dominant-baseline="text-before-edge">Mike</text></g><g transform="translate(25 230) rotate(0 15.933333396911621 9.599999999999909)"><text x="0" y="0" font-family="Virgil, Segoe UI Emoji" font-size="16px" fill="#000000" text-anchor="start" style="white-space: pre;" direction="ltr" dominant-baseline="text-before-edge">Tom</text></g><g transform="translate(23.75 293.75) rotate(0 18.649999618530273 9.599999999999909)"><text x="0" y="0" font-family="Virgil, Segoe UI Emoji" font-size="16px" fill="#000000" text-anchor="start" style="white-space: pre;" direction="ltr" dominant-baseline="text-before-edge">Mary</text></g><g transform="translate(507.5 106.25) rotate(0 112.46666717529297 19.200000000000045)"><text x="0" y="0" font-family="Virgil, Segoe UI Emoji" font-size="16px" fill="#000000" text-anchor="start" style="white-space: pre;" direction="ltr" dominant-baseline="text-before-edge">Mailboxes/Front Door Guard</text><text x="0" y="19.2" font-family="Virgil, Segoe UI Emoji" font-size="16px" fill="#000000" text-anchor="start" style="white-space: pre;" direction="ltr" dominant-baseline="text-before-edge">of the 'somebody'</text></g></svg>